<?xml version="1.0" encoding="UTF-8"?>
<svg version="1.1" xmlns="http://www.w3.org/2000/svg" width="461" height="461">
<path d="M0 0 C1.48827006 -0.00302395 2.97653857 -0.00691465 4.46480435 -0.01159257 C8.53729798 -0.02185001 12.60970334 -0.0196965 16.68220413 -0.01541197 C21.08109917 -0.01294063 25.47997318 -0.021964 29.87886047 -0.02944946 C38.49036715 -0.04218738 47.10184262 -0.04399127 55.71335713 -0.0416492 C62.71485501 -0.03986478 69.71634344 -0.04161834 76.71784019 -0.04587364 C78.21367218 -0.04676643 78.21367218 -0.04676643 79.73972299 -0.04767724 C81.76571741 -0.04888902 83.79171183 -0.05010316 85.81770625 -0.05131962 C104.8103791 -0.06219177 123.80303418 -0.06003427 142.79570802 -0.05393478 C160.15937479 -0.04876654 177.52298545 -0.0600192 194.88664112 -0.07903299 C212.72762508 -0.09841928 230.56858251 -0.10666597 248.40957707 -0.10290974 C258.42110394 -0.10099882 268.43258307 -0.10347462 278.44410133 -0.11762428 C286.96755947 -0.12954915 295.49094046 -0.13093059 304.01439968 -0.11883412 C308.36019584 -0.11295307 312.70585096 -0.11182451 317.05163765 -0.12383652 C321.03595712 -0.13472109 325.02001825 -0.13156157 329.00432577 -0.11757483 C330.43965768 -0.11493496 331.87501001 -0.11727199 333.31032185 -0.1253107 C352.05442009 -0.22293835 367.21065319 5.08343896 380.62944031 18.36225891 C393.17716884 32.01389318 396.60627069 46.93149955 396.55419922 64.9671936 C396.55722317 66.45546367 396.56111387 67.94373217 396.56579179 69.43199795 C396.57604922 73.50449158 396.57389572 77.57689694 396.56961119 81.64939773 C396.56713985 86.04829277 396.57616322 90.44716678 396.58364868 94.84605408 C396.5963866 103.45756075 396.59819048 112.06903623 396.59584842 120.68055073 C396.594064 127.68204862 396.59581756 134.68353704 396.60007286 141.6850338 C396.60066805 142.68225512 396.60126324 143.67947645 396.60187646 144.7069166 C396.60308824 146.73291102 396.60430238 148.75890544 396.60551884 150.78489985 C396.61639099 169.7775727 396.61423349 188.77022778 396.60813399 207.76290163 C396.60296575 225.1265684 396.61421841 242.49017905 396.63323221 259.85383473 C396.6526185 277.69481869 396.66086518 295.53577611 396.65710896 313.37677068 C396.65519804 323.38829755 396.65767384 333.39977667 396.6718235 343.41129494 C396.68374837 351.93475308 396.68512981 360.45813407 396.67303333 368.98159329 C396.66715229 373.32738944 396.66602373 377.67304456 396.67803574 382.01883125 C396.68892031 386.00315073 396.68576079 389.98721185 396.67177405 393.97151937 C396.66913417 395.40685129 396.67147121 396.84220362 396.67950992 398.27751545 C396.77281639 416.19196476 392.22034308 430.91762017 379.59819031 444.04975891 C365.59876765 457.47971353 350.57891993 461.57622503 331.58700562 461.52139282 C330.09873555 461.52441677 328.61046705 461.52830747 327.12220126 461.53298539 C323.04970764 461.54324283 318.97730228 461.54108933 314.90480149 461.5368048 C310.50590645 461.53433346 306.10703243 461.54335683 301.70814514 461.55084229 C293.09663847 461.5635802 284.48516299 461.56538409 275.87364849 461.56304202 C268.8721506 461.5612576 261.87066217 461.56301116 254.86916542 461.56726646 C253.37333344 461.56815925 253.37333344 461.56815925 251.84728262 461.56907007 C249.8212882 461.57028184 247.79529378 461.57149598 245.76929937 461.57271244 C226.77662652 461.5835846 207.78397144 461.58142709 188.79129759 461.5753276 C171.42763082 461.57015936 154.06402017 461.58141202 136.70036449 461.60042582 C118.85938053 461.6198121 101.01842311 461.62805879 83.17742854 461.62430257 C73.16590167 461.62239164 63.15442255 461.62486744 53.14290428 461.63901711 C44.61944614 461.65094198 36.09606515 461.65232341 27.57260593 461.64022694 C23.22680978 461.63434589 18.88115465 461.63321734 14.53536797 461.64522934 C10.55104849 461.65611391 6.56698737 461.65295439 2.58267985 461.63896766 C1.14734793 461.63632778 -0.2880044 461.63866481 -1.72331623 461.64670352 C-19.52510823 461.73942322 -34.34085588 457.23813695 -47.42524719 444.70600891 C-60.52937765 430.65945811 -65.0212722 416.46159022 -64.9671936 397.63648987 C-64.97021667 396.14495806 -64.97410693 394.65342781 -64.97878617 393.16190028 C-64.98905517 389.07574587 -64.98688714 384.98967931 -64.98260558 380.90351772 C-64.98013632 376.49165339 -64.98915507 372.0798101 -64.99664307 367.66795349 C-65.00938713 359.02890416 -65.01118407 350.38988592 -65.0088428 341.75082877 C-65.00705894 334.72690042 -65.00881076 327.70298149 -65.01306725 320.67905426 C-65.01366243 319.67892209 -65.01425762 318.67878991 -65.01487085 317.6483507 C-65.01608262 315.61647775 -65.01729675 313.58460479 -65.01851323 311.55273184 C-65.02938791 292.50045181 -65.02722677 273.44818948 -65.02112838 254.39590845 C-65.0159609 236.97721269 -65.02721034 219.55857289 -65.0462266 202.1398882 C-65.06561291 184.24469531 -65.0738595 166.34952889 -65.07010335 148.45432544 C-65.0681923 138.41148459 -65.07066933 128.36869134 -65.08481789 118.32585907 C-65.09674286 109.77492842 -65.09812415 101.22407467 -65.08602772 92.67314294 C-65.08014651 88.31317703 -65.07901854 83.9533517 -65.09103012 79.59339523 C-65.10191429 75.59608319 -65.09875564 71.59902866 -65.08476844 67.60172853 C-65.08212843 66.16165612 -65.08446601 64.72156337 -65.0925043 63.28151098 C-65.18989311 44.52057784 -59.89744046 29.3573761 -46.60493469 15.92475891 C-32.95330042 3.37703038 -18.03569406 -0.05207147 0 0 Z " fill="#1D2239" transform="translate(64.70649719238281,-0.2606964111328125)"/>
<path d="M0 0 C1.41141594 0.26975314 2.82287407 0.53928564 4.234375 0.80859375 C34.71439924 6.96896064 61.17675501 23.48865943 84 44 C84.67546875 44.60199219 85.3509375 45.20398438 86.046875 45.82421875 C112.56060906 70.88601023 130.77992112 110.04085638 132.2734375 146.41796875 C132.31281781 148.34104061 132.34658373 150.26423488 132.375 152.1875 C132.41238281 153.15880859 132.44976562 154.13011719 132.48828125 155.13085938 C132.54683884 159.87727726 132.57299873 162.22013902 129.6953125 166.13671875 C126.12951191 168.6017722 124.25037956 168.75899635 120 168 C116.82420043 165.45947701 115.21542049 163.87779718 114.23632812 159.88818359 C114.13481445 158.16075928 114.13481445 158.16075928 114.03125 156.3984375 C113.93811523 155.11283936 113.84498047 153.82724121 113.74902344 152.50268555 C113.68902161 151.49158218 113.68902161 151.49158218 113.62780762 150.46005249 C113.41209013 146.94083901 113.10840653 143.42982737 112.796875 139.91796875 C112.70518036 138.88090538 112.70518036 138.88090538 112.6116333 137.82289124 C111.80180645 129.20478403 109.78832477 121.16913878 107 113 C106.75266113 112.26072266 106.50532227 111.52144531 106.25048828 110.75976562 C98.19344269 87.19050482 84.82005417 67.35110538 67 50 C66.56171875 49.51660156 66.1234375 49.03320312 65.671875 48.53515625 C44.61857042 25.94006927 11.85988316 13.01270985 -18 8 C-19.35726196 7.74416138 -19.35726196 7.74416138 -20.74194336 7.4831543 C-41.37796435 4.42293058 -64.05820111 6.37684554 -84 12 C-84.8760791 12.24637207 -85.7521582 12.49274414 -86.65478516 12.74658203 C-104.3541275 17.93495473 -121.64887722 26.34998871 -136 38 C-136.85980469 38.66 -137.71960938 39.32 -138.60546875 40 C-150.00703939 48.95015069 -160.35991576 59.35466907 -169 71 C-169 61.11003004 -155.25420069 50.31220161 -148.49609375 43.47949219 C-110.19198386 5.39580237 -52.68961751 -11.09572834 0 0 Z " fill="#00F8A6" transform="translate(263,88)"/>
<path d="M0 0 C4.35792321 3.62845843 8.58364304 7.36114822 12.70703125 11.25390625 C13.40570313 11.89972656 14.104375 12.54554688 14.82421875 13.2109375 C20.22526398 18.37030172 24.52533221 24.07936626 28.70703125 30.25390625 C29.36703125 31.2078125 30.02703125 32.16171875 30.70703125 33.14453125 C48.0486511 59.56340525 54.41093364 94.15370105 48.01953125 125.06640625 C47.32614392 128.15273861 46.54899642 131.20498226 45.70703125 134.25390625 C45.43415283 135.26300049 45.43415283 135.26300049 45.15576172 136.29248047 C39.36490547 157.03916742 26.79065512 181.61972459 8.70703125 194.25390625 C4.74525107 194.91420295 3.25528986 194.61941199 -0.10546875 192.37890625 C-2.70348741 189.8551167 -3.21478791 188.99408588 -3.59375 185.40625 C-3.22178562 181.50787006 -2.24067453 180.52827217 0.51953125 177.81640625 C24.1432968 152.96687928 34.9631162 121.69903381 34.1171875 87.65234375 C33.33838606 71.57338998 28.96555946 56.54362622 21.70703125 42.25390625 C21.22363281 41.26390625 20.74023438 40.27390625 20.2421875 39.25390625 C5.87562273 11.23711512 -19.90936245 -8.15140455 -49.43432617 -17.84106445 C-61.14851266 -21.59111365 -72.0957979 -23.10972309 -84.41796875 -23.05859375 C-85.68954834 -23.05802979 -86.96112793 -23.05746582 -88.27124023 -23.05688477 C-96.84435542 -22.97344945 -104.8539463 -22.2118603 -113.203125 -20.3046875 C-116.08205771 -19.78422305 -117.59694514 -19.73088287 -120.29296875 -20.74609375 C-81.03497961 -36.01308953 -32.55895079 -25.61066581 0 0 Z " fill="#00F8A7" transform="translate(309.29296875,149.74609375)"/>
<path d="M0 0 C19.75055042 5.6683194 34.94543045 25.05853464 44.5078125 42.15625 C54.97523294 62.1046324 57.60631957 86.63246485 51.265625 108.2890625 C41.80430104 136.03059882 25.59807099 156.16655066 -0.46875 169.81640625 C-12.7174873 175.52580599 -29.40747363 180.3449702 -43 178 C-46.3125 176 -46.3125 176 -48 173 C-48.67242074 170.14939583 -48.902306 167.80245629 -48 165 C-45.29502393 161.42079212 -43.88104136 160.12967708 -39.390625 159.46875 C-38.01038845 159.46321765 -36.63001282 159.47454084 -35.25 159.5 C-16.09730206 159.0539129 2.90655556 150.92111453 17 138 C17.68191406 137.39800781 18.36382812 136.79601562 19.06640625 136.17578125 C33.58577027 122.62248059 43.5553908 101.84330002 44.43359375 81.921875 C44.45728271 79.86471931 44.45811215 77.80718882 44.4375 75.75 C44.42847656 74.65953369 44.41945313 73.56906738 44.41015625 72.44555664 C43.97381904 51.96043357 36.12515324 34.55400722 23 19 C22.39929688 18.28585938 21.79859375 17.57171875 21.1796875 16.8359375 C15.92194045 11.12297425 9.4962876 7.15646101 3 3.00390625 C2.01 2.34261719 1.02 1.68132812 0 1 C0 0.67 0 0.34 0 0 Z " fill="#00F8A6" transform="translate(267,168)"/>
<path d="M0 0 C4.46185532 5.6077963 5.46508496 11.97146517 6 19 C6.06574219 19.80050781 6.13148438 20.60101563 6.19921875 21.42578125 C6.84957104 36.56329154 0.8163118 51.35933013 -8.8125 62.875 C-18.9185452 73.4650512 -33.69696511 81.6679503 -48.515625 82.30078125 C-50.09363461 82.32026081 -51.67191015 82.32373424 -53.25 82.3125 C-54.084104 82.30686035 -54.91820801 82.3012207 -55.77758789 82.29541016 C-70.95278682 81.99880733 -84.81727336 76.3992235 -96 66 C-98.14616912 63.46849596 -98.94149013 62.39285201 -99.4375 59.0625 C-98.87978797 55.15851579 -97.93224851 53.63150507 -95 51 C-91.625 49.9375 -91.625 49.9375 -88 50 C-85.69038974 51.23179214 -84.01274857 52.38244864 -82 54 C-75.30267906 59.11173613 -69.05867691 62.50596688 -61 65 C-60.01 65.33 -59.02 65.66 -58 66 C-41.13400619 67.00667869 -27.30375505 64.82751439 -13.6640625 54.17578125 C-5.69576645 47.03694946 0.92052918 35.79470817 2 25 C2.44099557 16.43648129 1.91044659 8.35820383 0 0 Z " fill="#00F8A6" transform="translate(277,226)"/>
<path d="M0 0 C-0.33 0.99 -0.66 1.98 -1 3 C-0.01 3.33 0.98 3.66 2 4 C2 4.66 2 5.32 2 6 C1.37738281 6.16113281 0.75476563 6.32226562 0.11328125 6.48828125 C-15.03099494 10.94496504 -29.76547005 19.06820482 -42 29 C-42.85980469 29.66 -43.71960938 30.32 -44.60546875 31 C-56.00703939 39.95015069 -66.35991576 50.35466907 -75 62 C-75 52.11003004 -61.25420069 41.31220161 -54.49609375 34.47949219 C-42.75139068 22.80237373 -17.56101834 0 0 0 Z " fill="#02ECA4" transform="translate(169,97)"/>
<path d="M0 0 C0 0.99 0 1.98 0 3 C0.495 4.485 0.495 4.485 1 6 C-0.05574219 5.72736328 -0.05574219 5.72736328 -1.1328125 5.44921875 C-4.41724529 4.61310335 -7.70787239 3.80529391 -11 3 C-12.06613525 2.73340576 -13.13227051 2.46681152 -14.23071289 2.19213867 C-22.68970007 0.21035453 -30.63865151 -0.47240654 -39.3125 -0.375 C-40.57054443 -0.36992432 -41.82858887 -0.36484863 -43.12475586 -0.35961914 C-51.63186968 -0.24530121 -59.62383174 0.54859101 -67.91015625 2.44140625 C-70.78908896 2.9618707 -72.30397639 3.01521088 -75 2 C-51.48345369 -7.14532356 -24.07469795 -6.21282528 0 0 Z " fill="#09B281" transform="translate(264,127)"/>
<path d="M0 0 C0.495 0.99 0.495 0.99 1 2 C1.99 2.33 2.98 2.66 4 3 C3.40574219 3.40089844 2.81148437 3.80179687 2.19921875 4.21484375 C-13.49033823 14.97548858 -27.63674781 27.68431226 -39 43 C-39 33.65340514 -26.37671704 23.42335122 -20 17 C-17.77924194 14.82198677 -15.52650059 12.68211421 -13.25 10.5625 C-12.73155518 10.0785376 -12.21311035 9.5945752 -11.67895508 9.09594727 C-7.99184465 5.72950602 -4.10518044 2.84165129 0 0 Z " fill="#04DC96" transform="translate(133,116)"/>
<path d="M0 0 C12.50423049 3.58865808 25.29009021 14.73140546 33.25 24.8125 C35 28 35 28 34.8125 30.9375 C34.544375 31.618125 34.27625 32.29875 34 33 C32.02107786 30.53402607 30.04971491 28.0637581 28.10546875 25.5703125 C21.15858408 16.71338826 14.43531239 10.35769438 4.97827148 4.28710938 C3.30513242 3.21246597 1.65062488 2.10891401 0 1 C0 0.67 0 0.34 0 0 Z " fill="#05D190" transform="translate(267,168)"/>
<path d="M0 0 C6.73355743 8.46294104 6.17053456 19.69213329 6 30 C4.68 30.33 3.36 30.66 2 31 C2.03480469 29.02580078 2.03480469 29.02580078 2.0703125 27.01171875 C2.24383549 13.39754873 2.24383549 13.39754873 0 0 Z " fill="#0BA47A" transform="translate(277,226)"/>
<path d="M0 0 C0 0.33 0 0.66 0 1 C-1.31871094 1.03738281 -2.63742188 1.07476562 -3.99609375 1.11328125 C-13.7203185 1.44988553 -23.13300304 2.04915054 -32.66772461 4.0715332 C-36.07521016 4.77525766 -38.69077225 5.26306403 -42 4 C-27.74222677 -1.28065675 -14.99882054 -1.00428784 0 0 Z " fill="#127361" transform="translate(231,125)"/>
<path d="M0 0 C-1.47322125 3.45819304 -3.40462959 5.55628787 -6.125 8.125 C-10.87544504 12.75225684 -14.97114448 17.74162999 -19 23 C-19 15.3233929 -9.60468678 7.19122951 -4.76171875 1.58203125 C-3 0 -3 0 0 0 Z " fill="#0D9874" transform="translate(113,136)"/>
<path d="M0 0 C3.22290201 0.0289309 5.44294723 0.35779815 8.1875 2.1875 C8.1875 2.8475 8.1875 3.5075 8.1875 4.1875 C8.5175 5.1775 8.8475 6.1675 9.1875 7.1875 C7.22596209 6.76459963 5.26830125 6.32368382 3.3125 5.875 C2.22195313 5.63136719 1.13140625 5.38773438 0.0078125 5.13671875 C-2.8125 4.1875 -2.8125 4.1875 -4.8125 1.1875 C-3.8125 0.1875 -3.8125 0.1875 0 0 Z " fill="#05D392" transform="translate(255.8125,125.8125)"/>
<path d="M0 0 C0.7527269 -0.00095673 1.5054538 -0.00191345 2.2809906 -0.00289917 C3.86172571 -0.0035755 5.44246369 -0.00175965 7.02319336 0.00244141 C9.43023964 0.00780503 11.8371 0.00247392 14.24414062 -0.00390625 C15.78776082 -0.00324552 17.33138091 -0.00196446 18.875 0 C19.94398277 -0.00303635 19.94398277 -0.00303635 21.03456116 -0.00613403 C25.08307319 0.01269723 28.89867598 0.35159491 32.87109375 1.1328125 C32.87109375 1.4628125 32.87109375 1.7928125 32.87109375 2.1328125 C28.41609375 2.6278125 28.41609375 2.6278125 23.87109375 3.1328125 C23.87109375 2.4728125 23.87109375 1.8128125 23.87109375 1.1328125 C11.00109375 1.4628125 -1.86890625 1.7928125 -15.12890625 2.1328125 C-15.12890625 1.8028125 -15.12890625 1.4728125 -15.12890625 1.1328125 C-10.05890409 0.29960284 -5.14126504 -0.01464488 0 0 Z " fill="#165C55" transform="translate(212.12890625,93.8671875)"/>
<path d="M0 0 C3.68006822 3.38168431 5.9785845 6.42521756 8 11 C6.68 11.99 5.36 12.98 4 14 C1.28608722 9.22642128 -0.56561146 5.65611463 0 0 Z " fill="#01ECA0" transform="translate(301,196)"/>
<path d="M0 0 C0.33 0 0.66 0 1 0 C0.67 3.3 0.34 6.6 0 10 C-1.98 10.33 -3.96 10.66 -6 11 C-5.01 8.03 -4.02 5.06 -3 2 C-2.01 2 -1.02 2 0 2 C0 1.34 0 0.68 0 0 Z " fill="#02E99F" transform="translate(281,255)"/>
<path d="M0 0 C4.97093766 1.39760405 8.70089709 3.5146836 12.875 6.4375 C13.46796875 6.83259766 14.0609375 7.22769531 14.671875 7.63476562 C16.3671875 8.80859375 16.3671875 8.80859375 19 11 C19 11.99 19 12.98 19 14 C18.55011719 13.64808594 18.10023438 13.29617187 17.63671875 12.93359375 C12.64904007 9.10537545 7.47897876 5.71328448 2.125 2.41796875 C1.42375 1.95003906 0.7225 1.48210937 0 1 C0 0.67 0 0.34 0 0 Z " fill="#0E8C6E" transform="translate(267,168)"/>
<path d="M0 0 C0 0.66 0 1.32 0 2 C-1.98 2 -3.96 2 -6 2 C-7.88391785 5.26545761 -8.49287967 8.28111761 -9 12 C-9.66 12 -10.32 12 -11 12 C-11.35671933 8.16526716 -11.29771416 6.44657125 -9.125 3.1875 C-6.01246274 -0.01658248 -4.3473048 -0.11440276 0 0 Z " fill="#05D595" transform="translate(189,276)"/>
<path d="M0 0 C0.58265625 0.23589844 1.1653125 0.47179687 1.765625 0.71484375 C-1.08713637 3.64684849 -3.88517284 6.35799779 -7.234375 8.71484375 C-7.894375 8.05484375 -8.554375 7.39484375 -9.234375 6.71484375 C-8.16721428 5.51278911 -7.07999163 4.32852042 -5.984375 3.15234375 C-5.38109375 2.49105469 -4.7778125 1.82976562 -4.15625 1.1484375 C-2.234375 -0.28515625 -2.234375 -0.28515625 0 0 Z " fill="#09B784" transform="translate(120.234375,128.28515625)"/>
<path d="M0 0 C2.99220268 1.36370299 5.29026529 2.94908083 7.75 5.125 C8.67039062 5.93324219 8.67039062 5.93324219 9.609375 6.7578125 C10.06828125 7.16773438 10.5271875 7.57765625 11 8 C9.02 8.99 9.02 8.99 7 10 C5.82739389 8.71372289 4.6620717 7.42080217 3.5 6.125 C2.8503125 5.40570313 2.200625 4.68640625 1.53125 3.9453125 C0 2 0 2 0 0 Z " fill="#08B683" transform="translate(286,181)"/>
<path d="M0 0 C3.91593446 0.78318689 7.36406635 2.39179858 11 4 C11 4.66 11 5.32 11 6 C9.3125 6.6875 9.3125 6.6875 7 7 C3.30194812 5.32707177 1.44626119 3.81287042 0 0 Z " fill="#02EB9F" transform="translate(262,128)"/>
<path d="M0 0 C1.08667969 0.02707031 2.17335937 0.05414063 3.29296875 0.08203125 C4.54013672 0.13423828 4.54013672 0.13423828 5.8125 0.1875 C5.8125 0.5175 5.8125 0.8475 5.8125 1.1875 C2.5125 1.1875 -0.7875 1.1875 -4.1875 1.1875 C-4.1875 1.8475 -4.1875 2.5075 -4.1875 3.1875 C-8.65808824 7.1875 -8.65808824 7.1875 -11.1875 7.1875 C-8.5404966 1.28264626 -6.59771879 -0.21282964 0 0 Z " fill="#07C78D" transform="translate(230.1875,327.8125)"/>
<path d="M0 0 C0.66 1.32 1.32 2.64 2 4 C0.1875 5.5625 0.1875 5.5625 -2 7 C-2.99 6.67 -3.98 6.34 -5 6 C-3.35 4.02 -1.7 2.04 0 0 Z " fill="#06CC8E" transform="translate(125,122)"/>
<path d="M0 0 C0.66 0 1.32 0 2 0 C2.9765625 6.0546875 2.9765625 6.0546875 3 8 C2.34 8.66 1.68 9.32 1 10 C0.67 6.7 0.34 3.4 0 0 Z " fill="#184148" transform="translate(308,221)"/>
<path d="M0 0 C2.89932357 2.39509338 3.50168276 4.31245243 4 8 C3.01 8 2.02 8 1 8 C-0.35439668 5.29120665 -0.06501451 2.99066732 0 0 Z " fill="#03E399" transform="translate(301,196)"/>
</svg>
