<?xml version="1.0" encoding="UTF-8"?>
<svg version="1.1" xmlns="http://www.w3.org/2000/svg" width="512" height="512">
<path d="M0 0 C0.99702942 0.00304138 1.99405884 0.00608276 3.02130127 0.00921631 C19.42874707 0.08286863 35.27265325 1.05530742 51.375 4.4375 C52.39029785 4.64648926 53.4055957 4.85547852 54.45166016 5.07080078 C92.38161517 13.13008615 129.39208088 29.66900159 159.375 54.4375 C159.89433105 54.86208496 160.41366211 55.28666992 160.94873047 55.72412109 C172.44697066 65.14381983 183.89700763 74.94966549 193.375 86.4375 C194.179375 87.35402344 194.98375 88.27054687 195.8125 89.21484375 C232.24462116 130.84966963 256.28595837 187.54344305 256.578125 243.23046875 C256.58513931 244.13100983 256.59215363 245.0315509 256.59938049 245.9593811 C256.61677902 248.84797226 256.6232324 251.73635837 256.625 254.625 C256.62601212 256.10605728 256.62601212 256.10605728 256.62704468 257.61703491 C256.61129657 272.10838264 256.15841075 286.17770251 253.375 300.4375 C253.21402832 301.33452637 253.05305664 302.23155273 252.88720703 303.15576172 C247.23294529 334.40356941 235.57903665 364.72056514 218.375 391.4375 C217.94751465 392.10152832 217.5200293 392.76555664 217.07958984 393.44970703 C207.23853162 408.55585903 195.80447194 422.39799263 183.375 435.4375 C182.61703125 436.23671875 181.8590625 437.0359375 181.078125 437.859375 C175.5502862 443.54403192 169.58329265 448.5161937 163.375 453.4375 C162.30261957 454.31156123 161.23102952 455.1865929 160.16015625 456.0625 C107.55017375 498.73886198 39.3836153 516.64254843 -27.5546875 510.12109375 C-86.75388427 503.75873996 -138.94166502 477.34050818 -181.625 436.4375 C-182.44613281 435.65761719 -183.26726562 434.87773437 -184.11328125 434.07421875 C-189.7733708 428.57053928 -194.74230879 422.63380864 -199.625 416.4375 C-200.41777344 415.45007813 -201.21054688 414.46265625 -202.02734375 413.4453125 C-228.07812466 380.43942579 -245.09857054 341.75993154 -252.625 300.4375 C-252.78871094 299.60186523 -252.95242187 298.76623047 -253.12109375 297.90527344 C-258.39310464 270.29257179 -258.18144657 237.97791456 -252.625 210.4375 C-252.44807617 209.53563965 -252.27115234 208.6337793 -252.08886719 207.70458984 C-242.71554721 160.99178365 -221.80532404 117.94659551 -189.10546875 83.10546875 C-187.06219384 80.90774156 -185.11351198 78.67408936 -183.1875 76.375 C-149.2167652 37.41330416 -94.90205987 11.62205369 -44.625 3.4375 C-43.50487518 3.25327988 -43.50487518 3.25327988 -42.36212158 3.06533813 C-28.19409161 0.78657726 -14.33986823 -0.09368132 0 0 Z M-54.375 106.625 C-65.70756187 121.22150188 -71.49113548 138.97053427 -69.625 157.4375 C-64.9160475 185.39690548 -42.42382602 219.3690252 -20.5625 236.875 C-12.43798924 242.5254456 -3.32937306 244.30176837 6.49609375 243.03515625 C21.29890161 239.84830972 30.63585161 229.35642438 39.1875 217.5 C39.78643066 216.67588623 40.38536133 215.85177246 41.00244141 215.00268555 C56.65309512 193.28599983 74.02756385 168.57027642 70.09082031 140.40429688 C66.75266838 121.95049185 57.37213762 106.15786856 42.5234375 94.57421875 C10.99840861 73.17944108 -29.00569857 77.44173265 -54.375 106.625 Z M-168.625 254.4375 C-181.58217707 271.74633276 -185.61183865 290.77021904 -183.2265625 311.98046875 C-179.95782572 329.06704737 -169.48533111 345.08900691 -155.625 355.4375 C-139.53874259 365.9561785 -121.76598063 371.37125981 -102.48535156 368.07128906 C-98.00393182 366.98972213 -93.83559804 365.28816242 -89.625 363.4375 C-89.01301758 363.17469238 -88.40103516 362.91188477 -87.77050781 362.64111328 C-69.84430914 354.80941396 -53.60918673 342.88803296 -38.625 330.4375 C-37.74199219 329.71949219 -36.85898438 329.00148438 -35.94921875 328.26171875 C-27.02811126 320.742291 -22.95578257 312.76920708 -21.3046875 301.19140625 C-20.80513144 292.11613784 -23.98442627 282.2555084 -29.828125 275.3125 C-50.76371088 253.46667125 -83.92914227 229.35651175 -115.1875 228.1875 C-136.24553182 228.47509072 -155.05675361 238.79808827 -168.625 254.4375 Z M30.765625 274.6328125 C24.48294751 282.78617486 21.13376235 293.17764959 22.375 303.4375 C25.48747696 318.44075718 33.62728189 326.37139975 45.375 335.4375 C45.94250977 335.87852051 46.51001953 336.31954102 47.09472656 336.77392578 C70.0324789 354.46493822 95.36127841 371.22026948 125.375 368.4375 C142.6636492 366.04947837 158.23136409 356.21346653 169.4296875 343.04296875 C181.82125037 326.44623695 186.60364115 307.74564498 184.10693359 287.23535156 C180.96862343 268.40549056 170.22298714 252.25405052 154.87890625 241.02734375 C146.28520569 235.57081313 137.36679386 231.54369601 127.375 229.4375 C126.364375 229.210625 125.35375 228.98375 124.3125 228.75 C91.04589012 225.21099895 52.84318837 251.32871783 30.765625 274.6328125 Z " fill="#000000" transform="translate(255.625,0.5625)"/>
</svg>
