<?xml version="1.0" encoding="UTF-8"?>
<svg version="1.1" xmlns="http://www.w3.org/2000/svg" width="512" height="512">
<path d="M0 0 C1.44728153 -0.00258604 2.89456234 -0.00559986 4.34184217 -0.0090034 C8.31042511 -0.01704881 12.27898993 -0.0188616 16.24758005 -0.01960087 C20.53136076 -0.02145575 24.81513217 -0.02900532 29.09890747 -0.03573608 C38.46283655 -0.04930303 47.82676135 -0.05534173 57.19069862 -0.05974674 C63.0418011 -0.06251226 68.89290193 -0.06675021 74.7440033 -0.07125092 C90.9556391 -0.08344206 107.16727359 -0.09374128 123.37891388 -0.09712601 C124.41599376 -0.09734557 125.45307364 -0.09756514 126.52158019 -0.09779136 C127.56109329 -0.09800964 128.60060639 -0.09822791 129.67161989 -0.09845281 C131.77794679 -0.09889627 133.88427369 -0.09934283 135.99060059 -0.09979248 C137.03540382 -0.10001391 138.08020705 -0.10023534 139.15667099 -0.10046348 C156.07547867 -0.10440911 172.99424323 -0.12185665 189.91303426 -0.145152 C207.2985708 -0.16889603 224.68408572 -0.18132927 242.06963873 -0.18249393 C251.82475478 -0.18340904 261.57981464 -0.18911987 271.33491516 -0.20731354 C279.64386817 -0.22275582 287.95274762 -0.22781075 296.26171225 -0.21957543 C300.49648184 -0.21568334 304.7311035 -0.21652755 308.96585464 -0.23063278 C312.85233431 -0.24345885 316.73855619 -0.2420988 320.62503594 -0.23004207 C322.02145293 -0.2281 323.41788873 -0.23109347 324.81427938 -0.23988643 C349.31077942 -0.38421338 371.55947371 7.69683129 389.89587402 24.14044189 C390.53009277 24.69216064 391.16431152 25.24387939 391.81774902 25.81231689 C405.93557842 38.89397533 417.13425978 60.62667506 418.02582586 79.95813382 C418.0281565 80.99700171 418.03048714 82.0358696 418.03288841 83.10621834 C418.03796296 84.30971117 418.0430375 85.513204 418.04826581 86.75316632 C418.04901245 88.73128176 418.04901245 88.73128176 418.04977417 90.74935913 C418.0537911 92.16731539 418.05822971 93.58527051 418.06305373 95.00322425 C418.07500029 98.90018957 418.08066327 102.79714252 418.08523488 106.69412255 C418.0911986 110.89758122 418.10280685 115.10102516 418.11352539 119.30447388 C418.138037 129.45903738 418.15267743 139.61360575 418.16558546 149.76818973 C418.16929916 152.63869767 418.17327227 155.50920512 418.17733812 158.37971258 C418.20258319 176.22149072 418.22462714 194.06326966 418.23706627 211.90506172 C418.23999578 216.03706999 418.24295746 220.16907822 418.24597168 224.30108643 C418.24671773 225.32802773 418.24746378 226.35496904 418.24823244 227.41302978 C418.26086889 244.02536821 418.29406907 260.6375992 418.33577351 277.24988748 C418.3782828 294.32349558 418.40177191 311.39704883 418.40698683 328.47070968 C418.41039143 338.04941572 418.42203335 347.62795406 418.45508957 357.20660782 C418.48321549 365.36986751 418.49403492 373.53292511 418.48289411 381.69622947 C418.47773875 385.85462679 418.48038803 390.01260178 418.50535965 394.17093658 C418.68768664 426.31333658 413.52937123 451.38503857 391.08337402 475.39044189 C372.46914558 493.07395892 348.99936676 500.29890363 323.79174805 500.28088379 C322.34446652 500.28346983 320.89718571 500.28648365 319.44990587 500.28988719 C315.48132294 500.2979326 311.51275812 500.29974539 307.544168 500.30048466 C303.26038729 500.30233954 298.97661588 500.30988911 294.69284058 500.31661987 C285.32891149 500.33018682 275.9649867 500.33622552 266.60104942 500.34063053 C260.74994695 500.34339605 254.89884611 500.347634 249.04774475 500.3521347 C232.83610895 500.36432585 216.62447446 500.37462507 200.41283417 500.3780098 C199.37575429 500.37822936 198.3386744 500.37844893 197.27016786 500.37867515 C196.23065476 500.37889343 195.19114165 500.3791117 194.12012815 500.3793366 C192.01380126 500.37978006 189.90747436 500.38022662 187.80114746 500.38067627 C186.75634423 500.3808977 185.711541 500.38111913 184.63507706 500.38134727 C167.71626937 500.3852929 150.79750482 500.40274043 133.87871379 500.42603579 C116.49317725 500.44977981 99.10766233 500.46221306 81.72210932 500.46337771 C71.96699327 500.46429282 62.21193341 500.47000366 52.45683289 500.48819733 C44.14787988 500.50363961 35.83900043 500.50869454 27.53003579 500.50045922 C23.2952662 500.49656713 19.06064455 500.49741134 14.8258934 500.51151657 C10.93941374 500.52434264 7.05319185 500.52298259 3.16671211 500.51092586 C1.77029512 500.50898379 0.37385932 500.51197726 -1.02253133 500.52077022 C-25.51903137 500.66509717 -47.76772566 492.5840525 -66.10412598 476.14044189 C-66.73834473 475.58872314 -67.37256348 475.03700439 -68.02600098 474.46856689 C-82.14136136 461.38919626 -93.35039482 439.64948549 -94.23292714 420.31929797 C-94.23471571 419.27880386 -94.23650428 418.23830975 -94.23834705 417.16628551 C-94.2428049 415.96094258 -94.24726274 414.75559965 -94.25185567 413.51373118 C-94.25176638 412.17959987 -94.25157655 410.84546856 -94.251297 409.51133728 C-94.25459774 408.09124314 -94.25832375 406.67114994 -94.26243848 405.25105792 C-94.27244315 401.34829852 -94.27617282 397.4455545 -94.27882779 393.54278409 C-94.28273553 389.33324938 -94.29231371 385.12372679 -94.30104065 380.91419983 C-94.32079437 370.74630072 -94.33087103 360.57840064 -94.33976844 350.41048715 C-94.34415414 345.61835666 -94.34952031 340.82622728 -94.35475731 336.03409767 C-94.3717704 320.09619597 -94.38626269 304.15829494 -94.39350605 288.22038555 C-94.39541585 284.08525784 -94.3973362 279.95013013 -94.39929199 275.81500244 C-94.39977573 274.7872742 -94.40025947 273.75954597 -94.40075787 272.70067445 C-94.4090511 256.06692777 -94.43437571 239.43325316 -94.46687267 222.79953792 C-94.49998887 205.70899338 -94.51795903 188.61848541 -94.52115029 171.52790862 C-94.52331144 161.93758889 -94.53200178 152.34737419 -94.55761147 142.7570858 C-94.57938104 134.58607232 -94.58733832 126.41518938 -94.57764468 118.24415018 C-94.57311771 114.08010827 -94.57489193 109.91633533 -94.59440613 105.75233078 C-94.61216692 101.92918379 -94.61093708 98.10649942 -94.59550884 94.28334663 C-94.59204826 92.26831992 -94.60806218 90.25328761 -94.62511331 88.23833007 C-94.45502364 63.77753646 -83.8565749 41.66957175 -66.5958252 24.56329346 C-48.15652449 6.9750374 -25.08041232 -0.01792891 0 0 Z " fill="#00005B" transform="translate(94.1041259765625,5.85955810546875)"/>
<path d="M0 0 C1.21746918 -0.00744736 1.21746918 -0.00744736 2.45953369 -0.01504517 C5.16443723 -0.02972946 7.86928177 -0.0364856 10.57421875 -0.04199219 C12.46020509 -0.04774658 14.34619142 -0.05350428 16.23217773 -0.05926514 C20.20361605 -0.06979833 24.17503404 -0.07562314 28.14648438 -0.07910156 C33.19053537 -0.08453566 38.23430943 -0.10844288 43.27827454 -0.13707352 C47.18555421 -0.15589184 51.09277043 -0.16091598 55.00009155 -0.16243744 C56.85608402 -0.16543078 58.7120763 -0.17334433 60.56802368 -0.18662262 C87.3467263 -0.36424004 112.73139837 4.94142711 132.5 24.27050781 C146.45729356 38.87927335 152.95544148 57.13085034 152.66381836 77.15429688 C151.87574372 99.23834866 143.51002237 119.24975326 127.3671875 134.43066406 C107.36881568 152.44715946 79.41980615 154.56997306 53.76171875 154.28613281 C52.14844317 154.27606405 50.53516138 154.26694521 48.921875 154.25878906 C45.0349977 154.23712734 41.14843068 154.20282197 37.26171875 154.16113281 C37.26393936 155.03587753 37.26615997 155.91062225 37.26844788 156.81187439 C37.28844853 165.03788628 37.30369173 173.26389005 37.31353092 181.48992062 C37.31875931 185.71944652 37.32585615 189.94895241 37.3371582 194.1784668 C37.34798866 198.25681824 37.35399592 202.33515038 37.35659599 206.41351509 C37.35844996 207.97290921 37.36207002 209.53230221 37.36744881 211.09168816 C37.37466137 213.26842443 37.3757096 215.44507996 37.37524414 217.62182617 C37.37746475 218.86314804 37.37968536 220.10446991 37.38197327 221.38340759 C37.26171875 224.16113281 37.26171875 224.16113281 36.26171875 225.16113281 C34.84946829 225.25400542 33.43262941 225.27860053 32.01733398 225.2746582 C31.11647568 225.27458267 30.21561737 225.27450714 29.28746033 225.27442932 C28.30830154 225.26926804 27.32914276 225.26410675 26.3203125 225.25878906 C25.32290543 225.25737411 24.32549835 225.25595917 23.29786682 225.25450134 C20.09828751 225.24888396 16.89877706 225.23632852 13.69921875 225.22363281 C11.5358083 225.21862005 9.37239676 225.21405676 7.20898438 225.20996094 C1.8932055 225.19890888 -3.42253296 225.18215385 -8.73828125 225.16113281 C-8.76107147 196.64188047 -8.77877935 168.12262926 -8.78934658 139.6033696 C-8.79059735 136.23989287 -8.79189167 132.87641616 -8.79321289 129.51293945 C-8.7934752 128.84330405 -8.79373751 128.17366866 -8.79400777 127.48374128 C-8.79836449 116.62711612 -8.80625204 105.77049624 -8.81543405 94.91387422 C-8.82477054 83.78211795 -8.83026195 72.65036349 -8.83236974 61.51860327 C-8.83367727 55.26264677 -8.83676576 49.00670225 -8.84401131 42.75074959 C-8.85076765 36.86988318 -8.852899 30.98903375 -8.85138893 25.10816383 C-8.85166543 22.94291848 -8.85367283 20.77767259 -8.85748672 18.61243057 C-8.86241794 15.67003028 -8.86128166 12.72769519 -8.85853577 9.78529358 C-8.86144861 8.916634 -8.86436145 8.04797443 -8.86736256 7.15299183 C-8.84728543 -0.7351973 -7.21899529 0.010428 0 0 Z " fill="#9898FE" transform="translate(130.73828125,133.8388671875)"/>
<path d="M0 0 C1.54156555 1.54156555 1.13468494 2.97445764 1.14526367 5.12084961 C1.15164352 5.99523178 1.15802338 6.86961395 1.16459656 7.77049255 C1.16570938 8.72150345 1.1668222 9.67251434 1.16796875 10.65234375 C1.17296135 12.10804527 1.17296135 12.10804527 1.17805481 13.59315491 C1.1831283 15.6502332 1.18546301 17.70731975 1.18530273 19.7644043 C1.18748826 22.92054744 1.20563691 26.07634071 1.22460938 29.23242188 C1.22754333 31.2265613 1.22952811 33.22070239 1.23046875 35.21484375 C1.23765427 36.16383041 1.24483978 37.11281708 1.25224304 38.09056091 C1.24916641 38.96809525 1.24608978 39.84562958 1.24291992 40.74975586 C1.24434494 41.5239537 1.24576996 42.29815155 1.24723816 43.09580994 C1 45 1 45 -1 47 C-3.1003418 47.34716797 -3.1003418 47.34716797 -5.69921875 47.4921875 C-6.65417236 47.55510986 -7.60912598 47.61803223 -8.59301758 47.68286133 C-9.61419678 47.74626709 -10.63537598 47.80967285 -11.6875 47.875 C-24.87349165 48.86698868 -37.56542923 50.84819573 -49 58 C-49.85571091 58.46629822 -50.71142181 58.93259644 -51.59306335 59.4130249 C-55.33775496 63.4378188 -54.70379064 67.42252307 -54.65942383 72.73535156 C-54.67514938 74.37482758 -54.67514938 74.37482758 -54.69119263 76.04742432 C-54.72000659 79.66211107 -54.71364321 83.27584368 -54.70703125 86.890625 C-54.72014234 89.395988 -54.73544473 91.90134042 -54.75285339 94.40667725 C-54.78870264 100.32813582 -54.80244179 106.24938453 -54.8054778 112.17092681 C-54.81062805 119.57500927 -54.85009147 126.97884181 -54.88867188 134.3828125 C-54.95333059 147.5885271 -54.98745643 160.79413837 -55 174 C-61.6752034 174.02526945 -68.35039457 174.04283268 -75.02563477 174.05493164 C-77.29842591 174.05997325 -79.5712138 174.06680637 -81.84399414 174.07543945 C-85.10303551 174.08751261 -88.36203417 174.09322987 -91.62109375 174.09765625 C-92.64400009 174.10281754 -93.66690643 174.10797882 -94.72080994 174.11329651 C-95.66170975 174.11337204 -96.60260956 174.11344757 -97.57202148 174.11352539 C-98.40475082 174.115746 -99.23748016 174.11796661 -100.09544373 174.12025452 C-102 174 -102 174 -103 173 C-103.1092789 170.81072047 -103.14692785 168.61786418 -103.15821838 166.42588806 C-103.16315636 165.73082974 -103.16809434 165.03577141 -103.17318195 164.31965071 C-103.18863024 161.9734383 -103.19693727 159.62725339 -103.20532227 157.28100586 C-103.21489504 155.60600031 -103.22490476 153.93099722 -103.23532104 152.2559967 C-103.26244129 147.69423353 -103.28341217 143.13245993 -103.30332303 138.57066035 C-103.32513883 133.80868918 -103.352549 129.04675038 -103.37937927 124.2848053 C-103.42936594 115.26086782 -103.47428252 106.23691242 -103.51740164 97.2129398 C-103.56672307 86.94223214 -103.62166003 76.67155696 -103.67708123 66.40088069 C-103.79099294 45.26728403 -103.89781187 24.13365639 -104 3 C-98.21593031 2.92589885 -92.43213629 2.87142115 -86.64770508 2.83520508 C-84.67955717 2.82010918 -82.71144294 2.79963052 -80.7434082 2.77368164 C-77.91609388 2.73733351 -75.0892239 2.72028186 -72.26171875 2.70703125 C-70.93970711 2.68380547 -70.93970711 2.68380547 -69.59098816 2.66011047 C-68.77036392 2.65988388 -67.94973969 2.65965729 -67.10424805 2.65942383 C-66.38254929 2.65276199 -65.66085052 2.64610016 -64.9172821 2.63923645 C-62.39585547 3.11367828 -61.5559842 3.98962309 -60 6 C-57.99346626 12.24254942 -57.45545008 18.47987248 -57 25 C-56.42894531 24.3709375 -55.85789062 23.741875 -55.26953125 23.09375 C-40.31527898 7.30738512 -21.74556135 -1.28442189 0 0 Z " fill="#9898FE" transform="translate(415,185)"/>
<path d="M0 0 C46.23870968 0 46.23870968 0 59.171875 10.81640625 C66.56497423 18.63603044 68.62613767 27.1093757 68.54541016 37.59472656 C68.15647471 46.85921 64.83994194 55.61605419 58 62 C40.08764939 74.55104152 22.20824401 73 0 73 C0 48.91 0 24.82 0 0 Z " fill="#01015C" transform="translate(168,175)"/>
</svg>
